<svg id="Calque_1" data-name="Calque 1" xmlns="http://www.w3.org/2000/svg" viewBox="0 0 904.9 614.1"><defs><style>.cls-1,.cls-12,.cls-13,.cls-14{fill:none;}.cls-1,.cls-12,.cls-2,.cls-4{stroke:#5d5c74;}.cls-1,.cls-12,.cls-13,.cls-14,.cls-2,.cls-4{stroke-miterlimit:10;}.cls-1,.cls-4{stroke-width:4px;}.cls-2{fill:#4fc1ea;}.cls-12,.cls-13,.cls-14,.cls-2{stroke-width:3px;}.cls-3{fill:#5c5c74;}.cls-4{fill:#344258;}.cls-5{fill:#fbd7ce;}.cls-6{fill:#e4e6e9;}.cls-7{fill:#cdcfd2;}.cls-8{fill:#5d5c74;}.cls-9{fill:#fff;}.cls-10{fill:#dfe1e2;}.cls-11{fill:#edeeef;}.cls-13{stroke:#f39200;}.cls-14{stroke:#4fc1eb;}.cls-15{fill:#ff9a00;}</style></defs><title>worker1</title><line class="cls-1" x1="23.7" y1="574.6" x2="732.9" y2="574.6"/><path class="cls-2" d="M626.4,232.3c23.9,74.6-11.4,131.2-103.2,131.2-97,0-125.1-56.4-102.2-131.2,14.5-47.2,9-98.5,23.7-122,20.8-33.1,40.1-46,78.4-46,36.1,0,59.5,11.5,74.3,43.7C609.6,134.2,610.9,183.9,626.4,232.3Z" transform="translate(-26.6 60.9)"/><path class="cls-3" d="M522.5,363.4c-45.8,0-78-12.2-95.9-36.4-17.1-23.2-19.7-56.5-7.5-96.5,6.7-22,9.1-45,11.3-65.4,2.5-23.7,4.6-44.1,12.6-56.9,21.9-34.9,42-46.6,79.5-46.6,38.6,0,61.1,13.3,75.5,44.5,6.2,13.5,9.6,32.8,13.4,55.2,3.7,21.4,7.9,45.6,15.5,69.3,12.1,37.8,9.3,70.5-8.2,94.4C600.4,350.1,567.1,363.4,522.5,363.4Zm0-299.3c-36.5,0-56,11.5-77.4,45.4-7.7,12.3-9.8,32.4-12.2,55.8-2.1,20.5-4.6,43.7-11.4,65.9-12,39.1-9.5,71.7,7.1,94.2,17.3,23.5,48.9,35.3,93.8,35.3,43.8,0,76.3-12.9,94.2-37.4,17-23.2,19.7-55.1,7.8-92.1-7.7-23.9-11.9-48.2-15.6-69.6-3.9-22.2-7.2-41.3-13.2-54.5C581.8,77,559.9,64.1,522.5,64.1Z" transform="translate(-26.6 60.9)"/><path class="cls-4" d="M392,406.9c0-54.9,59.2-99.5,132.2-99.5s132.2,44.5,132.2,99.5" transform="translate(-26.6 60.9)"/><path class="cls-5" d="M553.8,156c-28.4,0-52.9-11.6-64.6-28.4-4.7,18.9-18,33-34,35v61.2c0,23.6,14.8,53,37.9,67.8v23.6c0,13.2,8.3,31.7,30.2,31.7,21.3,0,30.6-18.5,30.6-31.7v-22c24.7-14.2,38-45,38-69.5V146C587.8,154,577.9,156,553.8,156Z" transform="translate(-26.6 60.9)"/><path class="cls-3" d="M523.1,347.5c-23.1,0-31.4-19.7-31.4-33v-23c-22-14.4-37.9-43.1-37.9-68.5V161.8a1.38,1.38,0,0,1,1.1-1.3c15.3-1.9,28.2-15.2,32.9-34a1.28,1.28,0,0,1,1-1,1.3,1.3,0,0,1,1.3.5c12,17.1,36.3,27.8,63.5,27.8,24.7,0,33.3-2.1,36.9-9.1a1.42,1.42,0,0,1,1.4-.7,1.19,1.19,0,0,1,1,1.2v77.7c0,23.1-11.9,54.8-38,70.2v21.2C555,328.2,545.1,347.5,523.1,347.5ZM456.3,162.9V223c0,24.8,15.7,52.9,37.3,66.7a1.15,1.15,0,0,1,.6,1.1v23.6c0,12.2,7.7,30.4,28.9,30.4,20.2,0,29.3-17.8,29.3-30.4v-22a1.15,1.15,0,0,1,.6-1.1c24.5-14.1,37.3-45.1,37.3-68.4V149.2c-5.8,6-17.2,7.1-36.8,7.1-26.9,0-51.1-10.2-64.1-26.7C484.2,147.7,471.5,160.5,456.3,162.9Z" transform="translate(-26.6 60.9)"/><path class="cls-3" d="M537.5,248.2s-5.9,6.8-13.2,6.8-13.2-6.8-13.2-6.8a109.3,109.3,0,0,0,26.4,0Z" transform="translate(-26.6 60.9)"/><path class="cls-3" d="M525,229.8h-.3a6.23,6.23,0,0,1-4.9-2.3,4.44,4.44,0,0,1-.6-3.9l1.2.4a2.87,2.87,0,0,0,.4,2.7,4.71,4.71,0,0,0,3.9,1.8,5.87,5.87,0,0,0,4.7-1.9,3,3,0,0,0,.2-2.9l1.2-.5a4,4,0,0,1-.3,4.1A6.72,6.72,0,0,1,525,229.8Z" transform="translate(-26.6 60.9)"/><path class="cls-6" d="M670.3,378.6V535.2a14.72,14.72,0,0,1-14.7,14.7H390.2a14.72,14.72,0,0,1-14.7-14.7V378.4a14.72,14.72,0,0,1,14.7-14.7H655.6a15,15,0,0,1,14.7,14.9" transform="translate(-26.6 60.9)"/><path class="cls-7" d="M670.3,518.1v17.2A14.72,14.72,0,0,1,655.6,550H390.2a14.72,14.72,0,0,1-14.7-14.7V518Z" transform="translate(-26.6 60.9)"/><path class="cls-8" d="M375.5,460a3.12,3.12,0,0,1-3.1-3.1v-31a3.08,3.08,0,0,1,3.1-2.9,3,3,0,0,1,2.9,2.9v31a2.83,2.83,0,0,1-2.9,3.1" transform="translate(-26.6 60.9)"/><path class="cls-8" d="M655.6,553.2H390.2a17.78,17.78,0,0,1-17.8-17.8V476a3.08,3.08,0,0,1,3.1-2.9,3,3,0,0,1,2.9,2.9v59.4A11.78,11.78,0,0,0,390,547.2H655.6a11.65,11.65,0,0,0,11.6-11.8V378.6a11.78,11.78,0,0,0-11.6-11.8H390.2a11.65,11.65,0,0,0-11.6,11.8v30.8a3.1,3.1,0,0,1-6.2,0V378.6a17.78,17.78,0,0,1,17.8-17.8H655.6a17.78,17.78,0,0,1,17.8,17.8V535.2a17.88,17.88,0,0,1-17.8,18" transform="translate(-26.6 60.9)"/><path class="cls-9" d="M650.2,428.5a2.31,2.31,0,0,1-2.4-2.4V397.9a12.29,12.29,0,0,0-12.3-12.3H603.8a2.4,2.4,0,1,1,0-4.8h31.7A17.26,17.26,0,0,1,652.7,398v28.2a2.44,2.44,0,0,1-2.5,2.3m-63.9-43H564.1a2.4,2.4,0,0,1,0-4.8h22.2a2.31,2.31,0,0,1,2.4,2.4,2.43,2.43,0,0,1-2.4,2.4" transform="translate(-26.6 60.9)"/><path class="cls-10" d="M225,530.6h43V466.5H225Z" transform="translate(-26.6 60.9)"/><path class="cls-8" d="M228.1,527.5H265V469.6H228.1Zm40,6.2h-43a3.12,3.12,0,0,1-3.1-3.1V466.5a3.12,3.12,0,0,1,3.1-3.1h43a3.12,3.12,0,0,1,3.1,3.1v64.1A3.25,3.25,0,0,1,268.1,533.7Z" transform="translate(-26.6 60.9)"/><path class="cls-8" d="M268.1,522.1a3.1,3.1,0,1,1,0-6.2,17.3,17.3,0,0,0,0-34.6,3.1,3.1,0,1,1,0-6.2,23.5,23.5,0,0,1,0,47m-21.5-63.6a1.75,1.75,0,0,1-1.4-.7c-.5-.7-5.5-7.6-4.5-12.3a12.06,12.06,0,0,1,3.1-5.2c1.6-1.9,3.1-3.6,3.3-6.6a1.91,1.91,0,1,1,3.8.4c-.3,4.2-2.4,6.6-4.2,8.7-1,1.2-2.1,2.4-2.3,3.6-.5,2.4,2.4,7.3,3.8,9.2a1.79,1.79,0,0,1-.3,2.6,3.92,3.92,0,0,1-1.3.3M236,457.2a.55.55,0,0,1-.5-.2c-.3-.3-3.8-2.6-4.2-5a4.21,4.21,0,0,1,.7-2.9,5,5,0,0,0,.5-3.6.86.86,0,0,1,1.7-.3c.5,2.1-.2,3.5-.5,4.7a5.37,5.37,0,0,0-.5,2.1c.2,1,2.1,2.8,3.3,3.8.3.3.5.9.2,1.2a2,2,0,0,1-.7.2m21.2.3a1,1,0,0,1-.9-.7c-.2-.5-1.6-4.5-.3-6.6a5.83,5.83,0,0,1,2.3-2.1,6.49,6.49,0,0,0,2.6-2.6.72.72,0,0,1,1.2-.3,1.08,1.08,0,0,1,.5,1.2,8.65,8.65,0,0,1-3.3,3.5c-.7.5-1.4.9-1.6,1.4-.5,1,0,3.5.5,5a.88.88,0,0,1-.5,1.2h-.5" transform="translate(-26.6 60.9)"/><path class="cls-9" d="M239.4,517.3a2.63,2.63,0,0,1-2.7-2.7v-20a2.7,2.7,0,1,1,5.4,0v20a2.63,2.63,0,0,1-2.7,2.7h0m0,22.8a2.63,2.63,0,0,1-2.7-2.7V527.3a2.7,2.7,0,0,1,5.4,0v10.1a2.75,2.75,0,0,1-2.7,2.7" transform="translate(-26.6 60.9)"/><path class="cls-7" d="M229.1,268.6,179,318.8s-11.6-10.7-13.3-19.9A35,35,0,0,1,176.3,261s11-13,34.1-7.4C210.4,253.6,223,257.8,229.1,268.6Z" transform="translate(-26.6 60.9)"/><path class="cls-8" d="M109.9,233.2a1.5,1.5,0,0,1,.9-1,1.7,1.7,0,0,1,1.4,0l59.9,26.3a2.09,2.09,0,0,1,.6.4,39.52,39.52,0,0,1,54.6,1.1,38.8,38.8,0,0,1,5.9,7.6h0a1.9,1.9,0,0,1-.1,2.7l-4.2,4.2h-5.7l5.8-5.8a41.81,41.81,0,0,0-4.6-5.8A35.46,35.46,0,0,0,165.6,299h0a1.72,1.72,0,0,1-.5,1.9,1.93,1.93,0,0,1-2.8,0c-.1-.1-.2-.3-.3-.4a.1.1,0,0,1-.1-.1v-.1c0-.1-.1-.2-.1-.3a39.51,39.51,0,0,1,8.3-38.6l-57.6-25.3L89.2,310.3H85.6Z" transform="translate(-26.6 60.9)"/><path class="cls-8" d="M112.8,532.3a1.61,1.61,0,0,1-1.3-.6L72.1,483.3h4.4l37.1,45.6h64.2a1.75,1.75,0,0,1,1.7,1.7v9a1.75,1.75,0,0,1-1.7,1.7L40.3,542.7h0a1.75,1.75,0,0,1-1.7-1.7,1.69,1.69,0,0,1,1.7-1.7l135.8-1.4v-5.6Z" transform="translate(-26.6 60.9)"/><path class="cls-8" d="M181.8,321.6a2,2,0,1,1-2.8-2.8l10.3-10.3v5.7Z" transform="translate(-26.6 60.9)"/><path class="cls-11" d="M220.4,308.9a20,20,0,0,1-27,1.1l28-28A19.77,19.77,0,0,1,220.4,308.9Z" transform="translate(-26.6 60.9)"/><path class="cls-8" d="M228.9,274.5h-5.7l-34,34v5.7l1.3-1.3a23.88,23.88,0,0,0,33.7-33.7Zm-7.4,7.5a19.94,19.94,0,0,1-28.1,28.1Z" transform="translate(-26.6 60.9)"/><path class="cls-6" d="M50.2,473.7a20.2,20.2,0,1,1,20.2-20.2A20.21,20.21,0,0,1,50.2,473.7Z" transform="translate(-26.6 60.9)"/><path class="cls-8" d="M72.2,483.3h4.4L66.4,470.7a23.47,23.47,0,0,0,7.5-17.2,23.72,23.72,0,0,0-15.3-22.1l2.8-8.9H57.8l-2.5,7.9a21.57,21.57,0,0,0-5.1-.6,23.6,23.6,0,0,0,0,47.2,23.33,23.33,0,0,0,13.5-4.3Zm-22-9.6a20.2,20.2,0,1,1,20.2-20.2A20.21,20.21,0,0,1,50.2,473.7Z" transform="translate(-26.6 60.9)"/><rect class="cls-7" x="13.7" y="593.2" width="135.8" height="7"/><line class="cls-12" x1="29.8" y1="493.2" x2="61.6" y2="368.7"/><path class="cls-3" d="M475.8,189.7a2.6,2.6,0,0,1-1.9-4.4,15.25,15.25,0,0,1,12.3-4.9,11.34,11.34,0,0,1,8.7,5.1,2.61,2.61,0,1,1-4.4,2.8,6,6,0,0,0-4.7-2.7,10,10,0,0,0-8,3.3A3.18,3.18,0,0,1,475.8,189.7Z" transform="translate(-26.6 60.9)"/><path class="cls-3" d="M574.4,189.7a2.73,2.73,0,0,1-1.9-.8,11.09,11.09,0,0,0-8.6-3.4,8.08,8.08,0,0,0-6.2,3,2.59,2.59,0,0,1-3.7.5,2.68,2.68,0,0,1-.5-3.7,13.63,13.63,0,0,1,10-5.1,16.3,16.3,0,0,1,12.7,5,2.57,2.57,0,0,1-.1,3.7A2.14,2.14,0,0,1,574.4,189.7Z" transform="translate(-26.6 60.9)"/><path class="cls-13" d="M593.6,24.1a7.56,7.56,0,0,1-4.9,1.8,7.4,7.4,0,1,1,7.4-7.4,6.76,6.76,0,0,1-.9,3.5" transform="translate(-26.6 60.9)"/><path class="cls-14" d="M927.6,36a7.14,7.14,0,0,1-4.5,1.7,6.9,6.9,0,1,1,6.9-6.9,6.6,6.6,0,0,1-.8,3.2" transform="translate(-26.6 60.9)"/><path class="cls-14" d="M723.9-25.7a16.17,16.17,0,0,1-10.5,3.9,16.09,16.09,0,0,1-16.1-16.1A16.09,16.09,0,0,1,713.4-54a16.09,16.09,0,0,1,16.1,16.1,16.46,16.46,0,0,1-1.9,7.6" transform="translate(-26.6 60.9)"/><path class="cls-14" d="M738.4,128.4a5.39,5.39,0,1,1,1.9-4.1,5.14,5.14,0,0,1-.6,2.5" transform="translate(-26.6 60.9)"/><path class="cls-13" d="M776.6,72.4a10.71,10.71,0,1,1,3.7-8.1,10.63,10.63,0,0,1-1.3,5" transform="translate(-26.6 60.9)"/><path class="cls-13" d="M422.9-49.9a5.39,5.39,0,0,1-3.5,1.3A5.38,5.38,0,0,1,414-54a5.38,5.38,0,0,1,5.4-5.4,5.38,5.38,0,0,1,5.4,5.4,5.14,5.14,0,0,1-.6,2.5" transform="translate(-26.6 60.9)"/><path class="cls-13" d="M893.7,176.5a5.39,5.39,0,1,1,1.9-4.1,5.14,5.14,0,0,1-.6,2.5" transform="translate(-26.6 60.9)"/><path class="cls-15" d="M500.91,459.39a1.21,1.21,0,0,0,.8,1,20.55,20.55,0,0,0,2.3,1.15h0a55.64,55.64,0,0,0,20.6,4.36h.6c10.7,0,18.7-4.08,26-8.51a1.17,1.17,0,0,0,.6-.86.7.7,0,0,0-.4-.64,1.75,1.75,0,0,0-1-.29,4.22,4.22,0,0,0-.8.14c-7.8,3-15.5,6.08-24.9,6.08H524a74.8,74.8,0,0,1-18.7-2.86h0l-.6-.14-.4-.14c-.3-.07-.6-.22-.9-.29a4,4,0,0,0-.9-.14C501.61,458.25,500.71,458.68,500.91,459.39Zm-7-3.29a7.89,7.89,0,0,0,3.8,6.15,1.83,1.83,0,0,0,1,.29h0a1.37,1.37,0,0,0,.8-.22.77.77,0,0,0,.4-.64.61.61,0,0,0-.1-.36c-.2-.5-.7-1.28-1-2.07a7.75,7.75,0,0,1-.6-2V457h.1a.55.55,0,0,1,.3-.07,6.93,6.93,0,0,1,1.3-.07c.8,0,1.6,0,2.4.07,1,.07,1.8.14,2.3.22h.3a1.57,1.57,0,0,0,.9-.22,1,1,0,0,0,.4-.64c0-.36-.3-.65-.7-.86a15.15,15.15,0,0,0-2-.79h0l-.6-.14h0l-1.1-.29v.07a25.75,25.75,0,0,0-3.2-.21,12.78,12.78,0,0,0-3.3.36,1.9,1.9,0,0,0-.8.36h0a1.64,1.64,0,0,0-.4,1h0A.31.31,0,0,1,493.91,456.1Z" transform="translate(-26.6 60.9)"/></svg>