<?xml version="1.0" standalone="no"?>
<!DOCTYPE svg PUBLIC "-//W3C//DTD SVG 20010904//EN"
 "http://www.w3.org/TR/2001/REC-SVG-20010904/DTD/svg10.dtd">
<svg version="1.0" xmlns="http://www.w3.org/2000/svg"
 width="320.000000pt" height="320.000000pt" viewBox="0 0 320.000000 320.000000"
 preserveAspectRatio="xMidYMid meet">

<g transform="translate(0.000000,320.000000) scale(0.100000,-0.100000)"
fill="#000000" stroke="none">
<path d="M2025 2369 c-91 -18 -255 -79 -255 -95 0 -10 101 -194 106 -194 3 0
45 14 92 31 115 41 268 51 322 21 43 -23 72 -79 78 -148 l4 -51 -151 -7 c-311
-14 -456 -69 -518 -194 -65 -132 -37 -337 58 -431 71 -70 202 -102 340 -83
109 16 163 42 236 114 44 43 64 57 67 47 3 -8 16 -43 30 -79 l24 -65 106 -3
c81 -2 106 0 106 10 0 7 0 198 0 425 0 387 -1 415 -20 465 -19 52 -87 144
-119 162 -9 5 -22 16 -29 23 -7 7 -43 22 -80 34 -53 17 -96 23 -207 25 -77 2
-162 -2 -190 -7z m340 -689 c0 -149 -76 -231 -220 -238 -84 -5 -126 12 -150
58 -33 65 -7 166 54 204 48 30 78 37 191 46 136 10 125 16 125 -70z"/>
<path d="M427 2333 c10 -16 68 -102 128 -193 183 -273 218 -332 209 -346 -5
-7 -46 -70 -91 -141 -45 -70 -105 -162 -135 -203 -29 -41 -74 -108 -100 -147
l-48 -73 174 0 173 0 35 53 c19 28 73 114 119 190 46 75 86 137 89 137 6 0 33
-42 151 -235 l85 -140 176 -3 176 -2 -80 122 c-44 68 -96 146 -115 173 -101
144 -184 278 -179 291 3 8 72 114 154 236 82 123 161 242 175 266 l27 42 -174
0 -174 0 -47 -81 c-67 -116 -165 -264 -175 -264 -5 0 -56 77 -113 170 l-105
170 -176 3 -177 2 18 -27z"/>
</g>
</svg>
